<?xml version="1.0" encoding="UTF-8"?>
<svg xmlns="http://www.w3.org/2000/svg" width="200000000000000000000.000mm" height="200000000000000000000.000mm" viewBox="0.0 0.0 5000.000 5000.000" preserveAspectRatio="none" version="1.1">
  <title>Produce by Acme CAD Converter</title>
  <desc>Produce by Acme CAD Converter</desc>
<path d="M1476.5 3750L1278.8 3552.3 1184.32 3646.78 1158.08 3620.53 1385.52 3393.09 1411.77 3419.33 1317.29 3513.81 1514.99 3711.51 1476.5 3750Z"
fill-rule="evenodd" fill="RGB(255,220,190)"/>
<path d="M1651.46 3575.04L1488.75 3412.33 1518.49 3382.59 1541.1 3405.2 1541.1 3405.2 1539.49 3387.96 1539.89 3373.55 1542.29 3361.96 1542.29 3361.96 1546.48 3352.12 1552.25 3342.96 1559.61 3334.48 1559.61 3334.48 1572.35 3323.58 1587.06 3314.38 1603.76 3306.89 1617.01 3344.32 1617.01 3344.32 1604.62 3348.51 1593.88 3354.33 1584.78 3361.79 1584.78 3361.79 1578.23 3369.56 1573.42 3378.06 1570.34 3387.28 1570.34 3387.28 1569.16 3396.77 1570.04 3406.09 1573 3415.23 1573 3415.23 1580.12 3428.67 1589.11 3441.45 1599.98 3453.58 1686.45 3540.05 1651.46 3575.04Z"
fill-rule="evenodd" fill="RGB(255,220,190)"/>
<path d="M1616.47 3221.63L1586.72 3191.89 1621.72 3156.9 1651.46 3186.64 1616.47 3221.63Z
M1810.67 3415.83L1647.96 3253.12 1682.95 3218.13 1845.66 3380.84 1810.67 3415.83Z"
fill-rule="evenodd" fill="RGB(255,220,190)"/>
<path d="M2038.11 3146.4L2038.11 3146.4 2033.77 3166.89 2027.86 3185.43 2020.41 3202.02 2020.41 3202.02 2011.28 3217.3 2000.33 3231.94 1987.57 3245.93 1987.57 3245.93 1965.31 3265.29 1943.62 3278.26 1922.5 3284.86 1922.5 3284.86 1902.89 3285.44 1885.69 3280.36 1870.92 3269.63 1870.92 3269.63 1863.95 3261.14 1858.98 3251.57 1856.01 3240.94 1856.01 3240.94 1854.94 3229.74 1855.67 3218.46 1858.22 3207.1 1858.22 3207.1 1862.31 3195.71 1867.67 3184.33 1874.31 3172.97 1874.31 3172.97 1880.9 3163.54 1889.86 3151.83 1901.18 3137.84 1901.18 3137.84 1924.07 3109.3 1941.65 3085.39 1953.94 3066.11 1953.94 3066.11 1950.74 3062.69 1948.4 3060.23 1946.94 3058.73 1946.94 3058.73 1935.73 3049.7 1924.53 3045.08 1913.35 3044.87 1913.35 3044.87 1897.81 3050.04 1881.47 3060.18 1864.3 3075.27 1864.3 3075.27 1850.12 3090.99 1840.33 3105.41 1834.94 3118.51 1834.94 3118.51 1833.62 3131.47 1836.03 3145.43 1842.16 3160.39 1803.67 3191.89 1803.67 3191.89 1796.52 3177.17 1792.21 3162.61 1790.74 3148.2 1790.74 3148.2 1792.3 3133.37 1797.08 3117.52 1805.08 3100.65 1805.08 3100.65 1816.05 3083.21 1829.74 3065.63 1846.15 3047.93 1846.15 3047.93 1863.24 3031.94 1879.22 3019.26 1894.1 3009.88 1894.1 3009.88 1907.74 3003.41 1920.01 2999.45 1930.9 2998.01 1930.9 2998.01 1941.02 2998.79 1950.98 3001.48 1960.78 3006.08 1960.78 3006.08 1967.74 3011.09 1976.8 3018.99 1987.98 3029.78 2024.69 3066.49 2024.69 3066.49 2047.36 3088.69 2064.21 3104.13 2075.22 3112.79 2075.22 3112.79 2083.69 3117.51 2092.9 3121.13 2102.85 3123.65 2067.86 3158.65 2067.86 3158.65 2057.54 3156.32 2047.63 3152.24 2038.11 3146.4 2038.11 3146.4Z
M1975.13 3086.91L1975.13 3086.91 1963.96 3105.98 1948.05 3128.94 1927.4 3155.8 1927.4 3155.8 1915.89 3170.77 1907.38 3183.01 1901.88 3192.53 1901.88 3192.53 1898.66 3200.54 1897 3208.27 1896.9 3215.71 1896.9 3215.71 1898.29 3222.61 1901.07 3228.7 1905.26 3233.99 1905.26 3233.99 1913.51 3239.84 1923.33 3242.47 1934.71 3241.87 1934.71 3241.87 1947.16 3237.72 1960.18 3229.67 1973.76 3217.75 1973.76 3217.75 1986.21 3203.76 1996.09 3189.23 2003.42 3174.17 2003.42 3174.17 2007.93 3159.19 2009.34 3144.9 2007.66 3131.31 2007.66 3131.31 2003.48 3120.75 1996.02 3109.46 1985.27 3097.44 1975.13 3086.91Z"
fill-rule="evenodd" fill="RGB(255,220,190)"/>
<path d="M2162.33 3064.17L1938.39 2840.22 1973.38 2805.23 2197.32 3029.18 2162.33 3064.17Z"
fill-rule="evenodd" fill="RGB(255,220,190)"/>
<path d="M2539.5 2687L2205.55 2573.06 2246.31 2532.3 2480.45 2619.42 2480.45 2619.42 2498.64 2626.44 2515.65 2633.55 2531.49 2640.77 2531.49 2640.77 2524.13 2624 2517.25 2606.75 2510.85 2589.02 2428.27 2350.34 2469.27 2309.34 2579.11 2647.39 2539.5 2687Z"
fill-rule="evenodd" fill="RGB(255,220,190)"/>
<path d="M2811.01 2310.51L2848.82 2279.7 2848.82 2279.7 2856.86 2302.43 2859.17 2325.92 2855.76 2350.18 2855.76 2350.18 2846.53 2374.72 2831.38 2399.06 2810.3 2423.2 2810.3 2423.2 2779.68 2448.94 2748.37 2465.63 2716.36 2473.26 2716.36 2473.26 2684.99 2471.45 2655.61 2459.8 2628.21 2438.31 2628.21 2438.31 2605.92 2410.05 2593.68 2379.89 2591.5 2347.83 2591.5 2347.83 2598.63 2315.56 2614.33 2284.78 2638.6 2255.48 2638.6 2255.48 2667.06 2231.99 2697.12 2216.85 2728.77 2210.06 2728.77 2210.06 2760.32 2212.39 2790.07 2224.61 2818.01 2246.71 2818.01 2246.71 2819.91 2248.65 2822.31 2251.18 2825.23 2254.31 2669.71 2409.83 2669.71 2409.83 2688.96 2422.9 2708.99 2429.72 2729.8 2430.28 2729.8 2430.28 2750.42 2425.18 2769.89 2415.02 2788.21 2399.8 2788.21 2399.8 2799.9 2386.35 2808.53 2372.43 2814.12 2358.04 2814.12 2358.04 2816.47 2343.01 2815.44 2327.17 2811.01 2310.51 2811.01 2310.51Z
M2648.71 2385.33L2767.68 2266.36 2767.68 2266.36 2752.42 2256.27 2737.49 2250.44 2722.91 2248.87 2722.91 2248.87 2701.32 2252.56 2681.04 2262.11 2662.05 2277.52 2662.05 2277.52 2647.78 2294.65 2638.12 2312.87 2633.08 2332.19 2633.08 2332.19 2632.99 2351.34 2638.2 2369.05 2648.71 2385.33 2648.71 2385.33Z"
fill-rule="evenodd" fill="RGB(255,220,190)"/>
<path d="M2956.64 2269.86L2793.93 2107.15 2823.67 2077.41 2846.28 2100.02 2846.28 2100.02 2844.67 2082.79 2845.07 2068.37 2847.47 2056.78 2847.47 2056.78 2851.66 2046.94 2857.43 2037.78 2864.79 2029.3 2864.79 2029.3 2877.53 2018.4 2892.24 2009.2 2908.93 2001.71 2922.19 2039.14 2922.19 2039.14 2909.8 2043.33 2899.06 2049.15 2889.96 2056.61 2889.96 2056.61 2883.41 2064.38 2878.6 2072.88 2875.52 2082.1 2875.52 2082.1 2874.34 2091.59 2875.22 2100.91 2878.18 2110.05 2878.18 2110.05 2885.3 2123.49 2894.29 2136.27 2905.16 2148.4 2991.63 2234.87 2956.64 2269.86Z"
fill-rule="evenodd" fill="RGB(255,220,190)"/>
<path d="M3052.86 2075.66L3084.36 2037.17 3084.36 2037.17 3097.31 2044.01 3110.88 2046.89 3125.06 2045.81 3125.06 2045.81 3139.76 2040.63 3154.89 2031.22 3170.44 2017.57 3170.44 2017.57 3184.11 2002.19 3193.33 1987.84 3198.11 1974.51 3198.11 1974.51 3199.08 1962.69 3196.9 1952.83 3191.57 1944.93 3191.57 1944.93 3184.63 1940.37 3176.18 1939.07 3166.23 1941.03 3166.23 1941.03 3156.33 1945.6 3141.47 1954.27 3121.64 1967.02 3121.64 1967.02 3094.27 1984.66 3072.31 1997.79 3055.78 2006.43 3055.78 2006.43 3042.29 2011.53 3029.48 2014.04 3017.34 2013.97 3017.34 2013.97 3006.18 2011.52 2996.3 2006.85 2987.69 1999.99 2987.69 1999.99 2981.34 1992.23 2976.73 1983.43 2973.89 1973.58 2973.89 1973.58 2972.77 1963.06 2973.37 1952.21 2975.66 1941.05 2975.66 1941.05 2978.76 1931.97 2983.49 1921.89 2989.85 1910.82 2989.85 1910.82 2997.63 1899.39 3006.58 1888.23 3016.72 1877.36 3016.72 1877.36 3032.85 1862.5 3048.94 1850.22 3064.99 1840.52 3064.99 1840.52 3080.4 1833.63 3094.57 1829.76 3107.5 1828.93 3107.5 1828.93 3119.94 1830.95 3132.64 1835.62 3145.59 1842.97 3114.1 1881.46 3114.1 1881.46 3103.47 1875.77 3092.22 1873.29 3080.34 1874.02 3080.34 1874.02 3067.97 1878.17 3055.25 1885.97 3042.18 1897.4 3042.18 1897.4 3028.71 1912.25 3019.62 1925.5 3014.91 1937.16 3014.91 1937.16 3013.73 1947.13 3015.26 1955.35 3019.49 1961.8 3019.49 1961.8 3023.38 1964.78 3027.97 1966.59 3033.24 1967.24 3033.24 1967.24 3039.33 1966.71 3046.13 1964.8 3053.63 1961.5 3053.63 1961.5 3060.69 1957.33 3073.07 1949.62 3090.75 1938.37 3090.75 1938.37 3117.35 1921.54 3138.54 1908.86 3154.33 1900.33 3154.33 1900.33 3167.2 1895.09 3179.68 1892.25 3191.76 1891.82 3191.76 1891.82 3203.23 1894.02 3213.86 1899.1 3223.67 1907.05 3223.67 1907.05 3231.53 1917.16 3236.81 1929.16 3239.48 1943.06 3239.48 1943.06 3239.25 1958.29 3235.81 1974.28 3229.15 1991.04 3229.15 1991.04 3219.59 2007.99 3207.45 2024.57 3192.72 2040.78 3192.72 2040.78 3166.8 2063.76 3142.15 2079.59 3118.77 2088.26 3118.77 2088.26 3096.29 2090.26 3074.32 2086.06 3052.86 2075.66 3052.86 2075.66Z"
fill-rule="evenodd" fill="RGB(255,220,190)"/>
<path d="M3133.34 1704.75L3103.6 1675.01 3138.59 1640.02 3168.34 1669.76 3133.34 1704.75Z
M3327.55 1898.95L3164.84 1736.24 3199.83 1701.25 3362.54 1863.96 3327.55 1898.95Z"
fill-rule="evenodd" fill="RGB(255,220,190)"/>
<path d="M3347.67 1716.12L3347.67 1716.12 3323.69 1685.16 3311.9 1652.41 3312.29 1617.87 3312.29 1617.87 3321.05 1589.07 3336.37 1561.72 3358.27 1535.81 3358.27 1535.81 3386.98 1511.97 3417.16 1496.42 3448.81 1489.14 3448.81 1489.14 3480.1 1490.83 3509.19 1502.16 3536.07 1523.12 3536.07 1523.12 3554.18 1543.85 3566.69 1564.22 3573.61 1584.22 3573.61 1584.22 3575.64 1604.35 3573.5 1625.09 3567.2 1646.43 3567.2 1646.43 3557.24 1667.42 3544.17 1687.12 3527.98 1705.52 3527.98 1705.52 3498.87 1729.77 3468.55 1745.51 3437 1752.76 3437 1752.76 3405.65 1750.68 3375.87 1738.47 3347.67 1716.12 3347.67 1716.12Z
M3382.58 1681.05L3382.58 1681.05 3403.52 1698.18 3424.82 1708 3446.45 1710.53 3446.45 1710.53 3467.52 1706.7 3487.11 1697.45 3505.24 1682.77 3505.24 1682.77 3519.78 1664.76 3528.94 1645.22 3532.71 1624.13 3532.71 1624.13 3530.06 1602.38 3519.95 1580.81 3502.39 1559.43 3502.39 1559.43 3482.03 1542.9 3461.06 1533.46 3439.49 1531.11 3439.49 1531.11 3418.42 1534.95 3398.92 1544.09 3381.02 1558.55 3381.02 1558.55 3366.33 1576.67 3357.05 1596.24 3353.18 1617.26 3353.18 1617.26 3355.66 1638.85 3365.46 1660.11 3382.58 1681.05 3382.58 1681.05Z"
fill-rule="evenodd" fill="RGB(255,220,190)"/>
<path d="M3677.46 1549.04L3514.75 1386.33 3546.24 1354.84 3569.34 1377.94 3569.34 1377.94 3571.55 1346.17 3584.06 1315.94 3606.85 1287.23 3606.85 1287.23 3619.25 1276.01 3632.17 1266.6 3645.61 1259.02 3645.61 1259.02 3658.83 1253.57 3671.07 1250.56 3682.33 1250 3682.33 1250 3692.95 1251.52 3703.27 1254.76 3713.3 1259.73 3713.3 1259.73 3720.73 1265.06 3730.29 1273.36 3741.98 1284.64 3841.92 1384.58 3806.93 1419.57 3708.49 1321.13 3708.49 1321.13 3697.82 1311.34 3688.14 1304.3 3679.47 1300.01 3679.47 1300.01 3670.99 1298.16 3661.91 1298.4 3652.22 1300.75 3652.22 1300.75 3642.38 1305.08 3632.89 1311.29 3623.72 1319.35 3623.72 1319.35 3611.2 1334.35 3602.47 1350.49 3597.54 1367.78 3597.54 1367.78 3598.47 1386.13 3607.31 1405.42 3624.07 1425.67 3712.45 1514.05 3677.46 1549.04Z"
fill-rule="evenodd" fill="RGB(255,220,190)"/>
</svg>
